<svg xmlns="http://www.w3.org/2000/svg" width="256" height="256" viewBox="0 0 100 100"><rect width="100" height="100" rx="20" fill="#497bc7"></rect><path d="M27.56 69.56L16.22 69.56L16.22 30.44L27.02 30.44Q31.28 30.44 34.76 31.58Q38.24 32.72 40.70 35.09Q43.16 37.46 44.51 41.12Q45.86 44.78 45.86 49.82L45.86 49.82Q45.86 54.86 44.54 58.58Q43.22 62.30 40.79 64.73Q38.36 67.16 35.00 68.36Q31.64 69.56 27.56 69.56L27.56 69.56ZM25.10 37.58L25.10 62.42L26.54 62.42Q28.82 62.42 30.71 61.76Q32.60 61.10 33.95 59.63Q35.30 58.16 36.05 55.76Q36.80 53.36 36.80 49.82L36.80 49.82Q36.80 46.34 36.05 43.97Q35.30 41.60 33.95 40.19Q32.60 38.78 30.71 38.18Q28.82 37.58 26.54 37.58L26.54 37.58L25.10 37.58ZM62.66 69.56L53.48 69.56L48.26 30.44L57.44 30.44L58.64 51.26Q58.70 53.78 58.73 56.09Q58.76 58.40 58.82 61.10L58.82 61.10L59.06 61.10Q59.48 58.40 59.99 56.09Q60.50 53.78 60.98 51.26L60.98 51.26L63.62 40.34L69.26 40.34L71.72 51.26Q72.20 53.72 72.68 56.06Q73.16 58.40 73.64 61.10L73.64 61.10L73.88 61.10Q73.94 58.40 73.97 56.06Q74.00 53.72 74.12 51.26L74.12 51.26L75.20 30.44L83.78 30.44L78.98 69.56L69.50 69.56L67.22 57.44Q66.86 55.58 66.56 53.66Q66.26 51.74 66.14 50L66.14 50L65.96 50Q65.78 51.74 65.54 53.66Q65.30 55.58 64.94 57.44L64.94 57.44L62.66 69.56Z" fill="#ffffff"></path></svg>